<?xml version="1.0" encoding="UTF-8" standalone="no"?>
<!DOCTYPE svg PUBLIC "-//W3C//DTD SVG 1.1//EN" "http://www.w3.org/Graphics/SVG/1.1/DTD/svg11.dtd">
<svg width="100%" height="100%" viewBox="0 0 2000 300" version="1.1" xmlns="http://www.w3.org/2000/svg" xmlns:xlink="http://www.w3.org/1999/xlink" xml:space="preserve" xmlns:serif="http://www.serif.com/" style="fill-rule:evenodd;clip-rule:evenodd;stroke-linejoin:round;stroke-miterlimit:2;">
    <g id="LIVE" transform="matrix(0.792775,0,0,0.817206,832.594,-394.84)">
        <g transform="matrix(1.07136,0,0,1.0549,-295.318,-256.374)">
            <path d="M1636.59,792.265C1636.59,746.475 1598.86,709.299 1552.38,709.299L994.235,709.299C947.759,709.299 910.026,746.475 910.026,792.265L910.026,958.197C910.026,1003.99 947.759,1041.16 994.235,1041.16L1552.38,1041.16C1598.86,1041.16 1636.59,1003.99 1636.59,958.197L1636.59,792.265Z" style="fill:rgb(109,109,109);"/>
        </g>
        <g transform="matrix(1.26139,0,0,1.22368,569.537,371.311)">
            <text x="147.927px" y="317.606px" style="font-family:'ArialMT', 'Arial', sans-serif;font-size:220px;fill:white;">LIVE</text>
        </g>
    </g>
    <g transform="matrix(1,0,0,1,-147.369,-95.3998)">
        <text x="147.927px" y="321.187px" style="font-family:'ArialMT', 'Arial', sans-serif;font-size:225px;">RIVER</text>
        <text x="835.561px" y="321.187px" style="font-family:'Arial-BoldMT', 'Arial', sans-serif;font-weight:700;font-size:225px;">ROCK</text>
    </g>
</svg>
