<?xml version="1.0" encoding="UTF-8" standalone="no"?>
<!DOCTYPE svg PUBLIC "-//W3C//DTD SVG 1.1//EN" "http://www.w3.org/Graphics/SVG/1.1/DTD/svg11.dtd">
<svg width="100%" height="100%" viewBox="0 0 400 400" version="1.1" xmlns="http://www.w3.org/2000/svg" xmlns:xlink="http://www.w3.org/1999/xlink" xml:space="preserve" style="fill-rule:evenodd;clip-rule:evenodd;stroke-linejoin:round;stroke-miterlimit:2;">
    <g transform="matrix(0.1,0,0,-0.1,0,400)">
        <g transform="matrix(1.31952,5.31004e-32,5.31004e-32,1.31952,-697.986,-933.438)">
            <path id="path-logo-top" d="M1945,3510C1546,3468 1215,3189 1093,2793C1068,2711 1054.04,2696.69 1054.04,2529.69C1053.04,2370.69 1068,2336 1088,2265C1150,2052 1293,1838 1448,1730C1493,1698 1492,1700 1427,1765C1311,1881 1231,2018 1189,2175C1158,2288 1157,2511 1188,2621C1274,2937 1514,3176 1832,3262C1948,3293 2158,3293 2275,3261C2528,3193 2733,3026 2849,2795C2907,2678 2931,2585 2937,2448C2950,2171 2866,1954 2672,1761C2611,1701 2606,1693 2642,1718C2700,1758 2836,1902 2883,1973C2939,2058 2988,2169 3017,2279C3039,2361 3046.72,2387.57 3046.72,2511.57C3046.72,2635.57 3039,2679 3017,2761C2969,2942 2885,3091 2761,3216C2592,3386 2392,3483 2155,3510C2057,3521 2048,3521 1945,3510Z" style="fill-rule:nonzero;"/>
        </g>
        <g transform="matrix(1.31952,5.31004e-32,5.31004e-32,1.31952,-683.245,-933.438)">
            <path id="path-logo-bottom" d="M1259,3417C1162,3343 1101,3287 1036,3210C823,2958 717,2670 717,2345C717,2114 761,1932 866,1731C1056,1364 1407,1106 1814,1033C1939,1011 2157,1012 2280,1035C2839,1140 3262,1571 3355,2129C3380,2279 3372,2516 3336,2658C3278,2890 3168,3089 3006,3258C2932,3335 2827,3425 2790,3444C2782,3449 2805,3424 2842,3390C3093,3161 3230,2850 3230,2512C3230,2304 3194,2147 3105,1970C2936,1635 2624,1404 2245,1334C2112,1310 1879,1319 1750,1353C1101,1527 723,2176 895,2820C949,3020 1056,3199 1216,3358C1273,3414 1319,3460 1317,3460C1316,3460 1290,3441 1259,3417Z" style="fill-rule:nonzero;"/>
        </g>
        <g transform="matrix(10,0,0,-10,0,4000)">
            <path id="path-play-arrow" d="M282.188,175.806C283.58,176.472 284.465,177.878 284.465,179.421C284.465,180.963 283.58,182.369 282.189,183.036C257.131,195.048 176.994,233.465 154.827,244.092C153.588,244.686 152.13,244.602 150.966,243.87C149.803,243.137 149.097,241.859 149.097,240.484C149.095,217.828 149.089,141.144 149.087,118.421C149.087,117.037 149.797,115.75 150.968,115.013C152.139,114.275 153.606,114.191 154.854,114.789C177.076,125.437 257.143,163.804 282.188,175.806ZM258.741,175.898C260.159,176.559 261.063,177.985 261.056,179.549C261.049,181.114 260.132,182.531 258.708,183.18C238.38,192.438 184.732,216.87 167.334,224.793C166.109,225.351 164.685,225.256 163.546,224.539C162.406,223.822 161.703,222.58 161.676,221.235C161.318,203.86 160.292,154.087 159.925,136.242C159.896,134.851 160.587,133.544 161.752,132.785C162.917,132.025 164.392,131.921 165.652,132.509C183.668,140.906 238.249,166.347 258.741,175.898Z"/>
        </g>
    </g>
</svg>
